# xmcd
#
# Track frame offsets:
#	150
#	14592
#	31911
#	49200
#	71995
#	93022
#	106403
#	120994
#	137730
#	152683
#	167349
#	181446
#
# Disc length: 2738 seconds
#
# Revision: 1
# Processed by: cddbd v1.5.2PL0 Copyright (c) Steve Scherf et al.
# Submitted via: audiograbber 1.83.01
#
DISCID=970ab00c
DTITLE=Mark Burchfield - Gentle On My Mind
DYEAR=2006
DGENRE=Country
TTITLE0=Tequila Sunrise
TTITLE1=Operator
TTITLE2=Carolina In My Mind
TTITLE3=Maggie May
TTITLE4=Sail On
TTITLE5=Crazy Love
TTITLE6=Gentle On My Mind
TTITLE7=Landslide
TTITLE8=Longer
TTITLE9=Take Me Home, Country Roads
TTITLE10=Heart Of Gold
TTITLE11=City Of New Orleans
EXTD=
EXTT0=
EXTT1=
EXTT2=
EXTT3=
EXTT4=
EXTT5=
EXTT6=
EXTT7=
EXTT8=
EXTT9=
EXTT10=
EXTT11=
PLAYORDER=
